<?xml version="1.0" encoding="utf-8"?>
<!-- Generator: Adobe Illustrator 20.1.0, SVG Export Plug-In . SVG Version: 6.00 Build 0)  -->
<svg version="1.1" id="Layer_1" xmlns="http://www.w3.org/2000/svg" xmlns:xlink="http://www.w3.org/1999/xlink" x="0px" y="0px"
	 viewBox="0 0 24.6 18" style="enable-background:new 0 0 24.6 18;" xml:space="preserve">
<g>
	<path d="M22.2,0H2.4C1.1,0,0,1.1,0,2.4v13.1C0,16.9,1.1,18,2.4,18h19.8c1.4,0,2.4-1.1,2.4-2.4V2.4C24.7,1.1,23.6,0,22.2,0z
		 M22.3,4.4l-4.9,4.9l0,0l3.9,3.9c0.3,0.3,0.3,0.6,0,0.9c-0.1,0.1-0.3,0.2-0.4,0.2c-0.2,0-0.3-0.1-0.4-0.2l-4-3.9l0,0l-2.4,2.4
		c-0.5,0.5-1.1,0.7-1.8,0.7S11,13,10.6,12.6l-2.4-2.5l-4.3,4.3c-0.1,0.1-0.3,0.2-0.4,0.2S3.2,14.5,3,14.4c-0.3-0.3-0.3-0.6,0-0.9
		l4.3-4.3l0,0L2.4,4.1c-0.3-0.3-0.2-0.7,0-0.9C2.7,3,3.1,3,3.3,3.2l8.2,8.5c0.5,0.5,1.3,0.5,1.7,0l8.2-8.2c0.3-0.3,0.6-0.3,0.9,0
		C22.6,3.7,22.6,4.1,22.3,4.4z"/>
</g>
</svg>
