<?xml version="1.0" encoding="utf-8"?>
<!-- Generator: Adobe Illustrator 20.1.0, SVG Export Plug-In . SVG Version: 6.00 Build 0)  -->
<svg version="1.1" id="Layer_1" xmlns="http://www.w3.org/2000/svg" xmlns:xlink="http://www.w3.org/1999/xlink" x="0px" y="0px"
	 viewBox="0 0 14.8 25" style="enable-background:new 0 0 14.8 25;" xml:space="preserve">
<path d="M13.5,0H1.3C0.6,0,0,0.6,0,1.3l0,0v22.3C0,24.4,0.6,25,1.3,25l0,0h12.1c0.7,0,1.3-0.6,1.3-1.3l0,0V1.3
	C14.8,0.6,14.2,0,13.5,0L13.5,0z M7.4,23.6c-0.6,0-1.1-0.5-1.1-1.1c0-0.6,0.5-1.1,1.1-1.1c0.6,0,1.1,0.5,1.1,1.1
	C8.5,23.1,8,23.6,7.4,23.6L7.4,23.6z M13.7,19.9H1.1V1.3c0-0.1,0.1-0.3,0.3-0.3h12.1c0.1,0,0.3,0.1,0.3,0.3L13.7,19.9z"/>
</svg>
