<?xml version="1.0" encoding="utf-8"?>
<!-- Generator: Adobe Illustrator 20.1.0, SVG Export Plug-In . SVG Version: 6.00 Build 0)  -->
<svg version="1.1" id="Layer_1" xmlns="http://www.w3.org/2000/svg" xmlns:xlink="http://www.w3.org/1999/xlink" x="0px" y="0px"
	 viewBox="70.4 77.9 257.2 250" style="enable-background:new 70.4 77.9 257.2 250;" xml:space="preserve">
<g>
	<path style="fill:#F44336;" d="M140.4,191.2h-60c-5.3,0-10,4.3-10,10v116.7c0,5.3,4.3,10,10,10h60c5.3,0,10-4.3,10-10v-4.7
		c0.3,0,0.7,0,1,0c2.3,0.3,4.7,1.3,6.7,3.3c3.7,3.7,8.7,7,12,9c2.3,1.3,4.7,2,7.3,2h117.4c18.3-3,17-22.7,16.3-28.7
		c-0.3-1.3,0.3-2.7,1-3.7c9.7-10.7,6.7-23,4-29.7c-0.7-1.7-0.3-3.3,1-4.7c13-14.7,8.7-27.3,5-33.7c-1-1.7-1-3.7,0.3-5.3
		c11.3-14.3,0.3-32.3,0.3-32.3c-7-15.3-30.7-14.7-48-14c-4,0-7.7,0.3-10.3,0c-6.3-0.3-10.3-1.7-11.7-3.7c-1-1.7-0.3-4,1.3-7.3
		c0.7-1.3,1.7-3,3-5c6-10.3,15.7-27.7,19.3-40c2.3-8.3,0.3-19.3-5-28.3c-4.3-7-10-11.7-16-13c-3.7-0.7-6.7,0-9.3,2
		c-7,5.3-7.7,18.3-8,18.7c-3,22.7-23.7,42.4-33.7,51.7c-1.3,1.3-2.3,2.3-3.3,3c-4.7,4.7-7.7,12-11,19.7c-2.3,5.3-4.3,10.7-7.3,15.3
		c-3.7,6-8.3,11.3-11.7,15c-2.7,3-6.3,4.3-10,4.3h-10.7v-6.7C150.4,195.5,146.1,191.2,140.4,191.2z M147.1,317.9
		c0,3.7-3,6.7-6.7,6.7h-60c-3.7,0-6.7-3-6.7-6.7V201.2c0-3.7,3-6.7,6.7-6.7h60c3.7,0,6.7,3,6.7,6.7V317.9z M161.1,211.2
		c4.7,0,9.3-2,12.7-5.7c3.3-3.7,8-9.3,12-15.3c3-4.7,5.3-10.3,7.7-15.7c3-7.3,6-14.3,10-18.7c1-0.7,2-2,3-3
		c10.3-9.7,31.3-30,34.7-54c0,0,0.7-12,6.7-16.3c2-1.3,4-2,6.7-1.3c5,1,10,5,14,11.3c5,8.3,7,18.3,4.7,25.7
		c-3.3,11.7-13.7,29.7-19,39.4c-1.3,2-2.3,4-3,5.3c-2.3,4.3-3,8-1.3,10.7c2,3.3,6.7,5,14.3,5.7c3,0,6.7,0,10.7,0
		c16.3-0.3,39-1,45,12.3c0,0,9.7,16.3,0,28.7c-2,2.7-2.3,6.3-0.3,9c3.3,5.3,7,16.7-4.7,29.7c-2,2.3-2.7,5.3-1.3,8.3
		c2.3,5.7,5,16.7-3.7,26c-1.7,1.7-2.3,4-2,6.3c1,6.7,1.3,22.7-13.3,25H177.1c-2,0-4-0.7-5.7-1.7c-3.3-2-8-5.3-11.3-8.7
		c-2.3-2.3-5.3-3.7-8.3-4c-0.3,0-1,0-1.3,0v-99H161.1z"/>
</g>
</svg>
